<svg width="32" height="32" viewBox="0 0 32 32" fill="none" xmlns="http://www.w3.org/2000/svg">
  <path d="M23.3909 5.72125H24.9678L23.8506 6.84144C23.485 7.208 23.4858 7.80156 23.8524 8.16725C24.0354 8.34975 24.2749 8.44094 24.5144 8.44094C24.7548 8.44094 24.9951 8.34906 25.1782 8.16544L26.2892 7.05144V8.63C26.2892 9.14775 26.709 9.5675 27.2267 9.5675C27.7445 9.5675 28.1642 9.14775 28.1642 8.63V7.0515L29.2752 8.1655C29.4584 8.34912 29.6986 8.441 29.939 8.441C30.1785 8.441 30.4181 8.34981 30.601 8.16731C30.9676 7.80169 30.9684 7.20806 30.6028 6.8415L29.4857 5.72125H31.0625C31.5802 5.72125 32 5.3015 32 4.78375C32 4.266 31.5802 3.84625 31.0625 3.84625H29.4857L30.6029 2.726C30.9685 2.35944 30.9677 1.76581 30.6011 1.40019C30.2344 1.03444 29.6408 1.03531 29.2753 1.402L28.1643 2.516V0.9375C28.1643 0.41975 27.7446 0 27.2268 0C26.7091 0 26.2893 0.41975 26.2893 0.9375V2.51606L25.1783 1.402C24.8126 1.03537 24.2189 1.0345 23.8525 1.40019C23.4859 1.76581 23.4851 2.35944 23.8507 2.726L24.9679 3.84625H23.391C22.8733 3.84625 22.4535 4.266 22.4535 4.78375C22.4535 5.3015 22.8732 5.72125 23.3909 5.72125Z" fill="url(#paint0_linear_40000032_4115)"/>
  <path d="M11.1938 6.95706C11.7116 6.95706 12.1313 6.53733 12.1313 6.01956C12.1313 5.5018 11.7116 5.08206 11.1938 5.08206C10.676 5.08206 10.2563 5.5018 10.2563 6.01956C10.2563 6.53733 10.676 6.95706 11.1938 6.95706Z" fill="url(#paint1_linear_40000032_4115)"/>
  <path d="M14.0336 5.44425C14.5513 5.44425 14.9711 5.02452 14.9711 4.50675C14.9711 3.98898 14.5513 3.56925 14.0336 3.56925C13.5158 3.56925 13.0961 3.98898 13.0961 4.50675C13.0961 5.02452 13.5158 5.44425 14.0336 5.44425Z" fill="url(#paint2_linear_40000032_4115)"/>
  <path d="M16.9785 6.75931C17.4963 6.75931 17.916 6.33958 17.916 5.82181C17.916 5.30405 17.4963 4.88431 16.9785 4.88431C16.4607 4.88431 16.041 5.30405 16.041 5.82181C16.041 6.33958 16.4607 6.75931 16.9785 6.75931Z" fill="url(#paint3_linear_40000032_4115)"/>
  <path d="M17.8044 9.89144C18.3222 9.89144 18.7419 9.4717 18.7419 8.95394C18.7419 8.43617 18.3222 8.01644 17.8044 8.01644C17.2867 8.01644 16.8669 8.43617 16.8669 8.95394C16.8669 9.4717 17.2867 9.89144 17.8044 9.89144Z" fill="url(#paint4_linear_40000032_4115)"/>
  <path d="M15.8438 12.6117C16.3616 12.6117 16.7813 12.192 16.7813 11.6742C16.7813 11.1564 16.3616 10.7367 15.8438 10.7367C15.326 10.7367 14.9063 11.1564 14.9063 11.6742C14.9063 12.192 15.326 12.6117 15.8438 12.6117Z" fill="url(#paint5_linear_40000032_4115)"/>
  <path d="M31.2386 16.2833H22.232C21.8115 16.2833 21.4706 16.6242 21.4706 17.0448V18.6231H22.2968C22.9594 18.6231 23.4966 19.1602 23.4966 19.8229V25.8836H32V17.0448C32 16.6243 31.6591 16.2833 31.2386 16.2833Z" fill="url(#paint6_linear_40000032_4115)"/>
  <path d="M23.4966 32H25.7978V30.5403C25.7978 30.0354 26.1857 29.6011 26.6899 29.5774C27.2283 29.552 27.6728 29.981 27.6728 30.5138V32H31.2386C31.6591 32 32 31.6591 32 31.2386V27.7783H23.4966V32Z" fill="url(#paint7_linear_40000032_4115)"/>
  <path d="M13.1217 9.7025C13.1217 9.282 12.7808 8.94106 12.3603 8.94106H0.761437C0.340875 8.94113 0 9.282 0 9.7025V31.2386C0 31.6591 0.340875 32 0.761437 32H5.40619V30.5414C5.40619 29.9493 5.89075 29.4464 6.48275 29.4575C7.05688 29.4683 7.519 29.937 7.519 30.5137V32H9.49288V25.7022H3.62713C3.12231 25.7022 2.68794 25.3143 2.66419 24.8101C2.63881 24.2717 3.06781 23.8272 3.60062 23.8272H9.49281V21.7177H3.60069C3.06787 21.7177 2.63887 21.2733 2.66425 20.7349C2.688 20.2306 3.12238 19.8427 3.62719 19.8427H9.49288C9.49288 19.1801 10.0301 18.6429 10.6927 18.6429H13.1217L13.1217 9.7025ZM9.52106 17.7331H3.60069C3.08294 17.7331 2.66319 17.3134 2.66319 16.7956C2.66319 16.2779 3.08294 15.8581 3.60069 15.8581H9.52106C10.0388 15.8581 10.4586 16.2779 10.4586 16.7956C10.4586 17.3134 10.0388 17.7331 9.52106 17.7331ZM9.52106 13.7486H3.60069C3.08294 13.7486 2.66319 13.3289 2.66319 12.8111C2.66319 12.2934 3.08294 11.8736 3.60069 11.8736H9.52106C10.0388 11.8736 10.4586 12.2934 10.4586 12.8111C10.4586 13.3289 10.0388 13.7486 9.52106 13.7486Z" fill="url(#paint8_linear_40000032_4115)"/>
  <path d="M21.1067 20.5179H11.9534C11.63 20.5179 11.3678 20.7801 11.3678 21.1034V32H15.5925V30.5403C15.5925 30.0354 15.9804 29.6011 16.4847 29.5774C17.0231 29.552 17.4675 29.981 17.4675 30.5138V32H21.6923V21.1034C21.6923 20.7801 21.4301 20.5179 21.1067 20.5179ZM14.5391 27.9018C14.0214 27.9018 13.6016 27.482 13.6016 26.9643C13.6016 26.4465 14.0214 26.0268 14.5391 26.0268C15.0569 26.0268 15.4766 26.4465 15.4766 26.9643C15.4766 27.482 15.0569 27.9018 14.5391 27.9018ZM14.5391 24.3834C14.0214 24.3834 13.6016 23.9636 13.6016 23.4459C13.6016 22.9281 14.0214 22.5084 14.5391 22.5084C15.0569 22.5084 15.4766 22.9281 15.4766 23.4459C15.4766 23.9637 15.0569 24.3834 14.5391 24.3834ZM18.521 27.9018C18.0033 27.9018 17.5835 27.482 17.5835 26.9643C17.5835 26.4465 18.0033 26.0268 18.521 26.0268C19.0388 26.0268 19.4585 26.4465 19.4585 26.9643C19.4585 27.482 19.0388 27.9018 18.521 27.9018ZM18.521 24.3834C18.0033 24.3834 17.5835 23.9636 17.5835 23.4459C17.5835 22.9281 18.0033 22.5084 18.521 22.5084C19.0388 22.5084 19.4585 22.9281 19.4585 23.4459C19.4585 23.9637 19.0388 24.3834 18.521 24.3834Z" fill="url(#paint9_linear_40000032_4115)"/>
  <defs>
    <linearGradient id="paint0_linear_40000032_4115" x1="0" y1="16" x2="32" y2="16" gradientUnits="userSpaceOnUse">
      <stop stop-color="#6A5CFF"/>
      <stop offset="1" stop-color="#A890FF"/>
    </linearGradient>
    <linearGradient id="paint1_linear_40000032_4115" x1="0" y1="16" x2="32" y2="16" gradientUnits="userSpaceOnUse">
      <stop stop-color="#6A5CFF"/>
      <stop offset="1" stop-color="#A890FF"/>
    </linearGradient>
    <linearGradient id="paint2_linear_40000032_4115" x1="0" y1="16" x2="32" y2="16" gradientUnits="userSpaceOnUse">
      <stop stop-color="#6A5CFF"/>
      <stop offset="1" stop-color="#A890FF"/>
    </linearGradient>
    <linearGradient id="paint3_linear_40000032_4115" x1="0" y1="16" x2="32" y2="16" gradientUnits="userSpaceOnUse">
      <stop stop-color="#6A5CFF"/>
      <stop offset="1" stop-color="#A890FF"/>
    </linearGradient>
    <linearGradient id="paint4_linear_40000032_4115" x1="0" y1="16" x2="32" y2="16" gradientUnits="userSpaceOnUse">
      <stop stop-color="#6A5CFF"/>
      <stop offset="1" stop-color="#A890FF"/>
    </linearGradient>
    <linearGradient id="paint5_linear_40000032_4115" x1="0" y1="16" x2="32" y2="16" gradientUnits="userSpaceOnUse">
      <stop stop-color="#6A5CFF"/>
      <stop offset="1" stop-color="#A890FF"/>
    </linearGradient>
    <linearGradient id="paint6_linear_40000032_4115" x1="0" y1="16" x2="32" y2="16" gradientUnits="userSpaceOnUse">
      <stop stop-color="#6A5CFF"/>
      <stop offset="1" stop-color="#A890FF"/>
    </linearGradient>
    <linearGradient id="paint7_linear_40000032_4115" x1="0" y1="16" x2="32" y2="16" gradientUnits="userSpaceOnUse">
      <stop stop-color="#6A5CFF"/>
      <stop offset="1" stop-color="#A890FF"/>
    </linearGradient>
    <linearGradient id="paint8_linear_40000032_4115" x1="0" y1="16" x2="32" y2="16" gradientUnits="userSpaceOnUse">
      <stop stop-color="#6A5CFF"/>
      <stop offset="1" stop-color="#A890FF"/>
    </linearGradient>
    <linearGradient id="paint9_linear_40000032_4115" x1="0" y1="16" x2="32" y2="16" gradientUnits="userSpaceOnUse">
      <stop stop-color="#6A5CFF"/>
      <stop offset="1" stop-color="#A890FF"/>
    </linearGradient>
  </defs>
</svg>
