<svg width="20" height="20" viewBox="0 0 20 20" fill="none" xmlns="http://www.w3.org/2000/svg">
  <path d="M10.0003 1.66675C6.09199 1.66675 2.91699 4.84175 2.91699 8.75008C2.91699 12.6584 6.09199 15.8334 10.0003 15.8334H10.417V18.3334C14.467 16.3834 17.0837 12.5001 17.0837 8.75008C17.0837 4.84175 13.9087 1.66675 10.0003 1.66675ZM10.8337 13.7501H9.16699V12.0834H10.8337V13.7501ZM10.8337 10.8334H9.16699C9.16699 8.12508 11.667 8.33341 11.667 6.66675C11.667 5.75008 10.917 5.00008 10.0003 5.00008C9.08366 5.00008 8.33366 5.75008 8.33366 6.66675H6.66699C6.66699 4.82508 8.15866 3.33341 10.0003 3.33341C11.842 3.33341 13.3337 4.82508 13.3337 6.66675C13.3337 8.75008 10.8337 8.95841 10.8337 10.8334Z" fill="white"/>
</svg>
