<svg width="40" height="40" viewBox="0 0 40 40" fill="none" xmlns="http://www.w3.org/2000/svg">  <path d="M34.7902 25.5793L33.8167 24.5519C32.9615 27.1587 31.3913 29.4431 29.3393 31.1714C31.5054 31.9182 33.5932 33.2508 35.3764 32.7909C36.6877 31.2128 37.7594 29.4286 38.5377 27.4932C37.1361 27.3599 35.7185 26.5589 34.7902 25.5793Z" fill="url(#paint0_linear_4_1177)"/>  <path d="M31.2851 3.51886C29.4645 2.26679 27.4268 1.30935 25.2398 0.714163C24.5943 1.91906 24.4854 2.65091 24.2495 4.24117L24.2262 4.40243C24.1587 4.87205 24.0793 5.41929 23.8537 5.95349C25.5305 6.41687 27.0869 7.17362 28.4641 8.16558C29.7645 6.94428 30.8768 5.13404 31.2851 3.51886Z" fill="url(#paint1_linear_4_1177)"/>  <path d="M30.4225 9.85822C33.3033 12.7785 34.9365 17.1616 34.466 21.4926L36.6565 23.8043C37.4317 24.6224 38.6705 25.1231 39.3075 24.876C39.335 24.8653 39.3629 24.8571 39.3907 24.8484C41.2363 17.8233 38.6507 9.80746 33.4419 5.2304C32.8115 6.91296 31.7211 8.58288 30.4225 9.85822Z" fill="url(#paint2_linear_4_1177)"/>  <path d="M6.41177 11.9949C6.74341 11.9826 7.43886 11.8914 7.96713 11.8031C10.6962 7.76303 15.5374 5.1655 20.7274 5.44912C20.803 5.42632 20.9237 5.38977 20.9716 5.37306C21.2319 5.26335 21.3484 5.16269 21.4003 5.09702C21.5544 4.90266 21.6179 4.46131 21.6793 4.03463L21.7043 3.86221C21.9174 2.4257 22.0641 1.43796 22.6297 0.188473C14.0081 -1.03759 5.50618 3.83832 1.99221 11.3191C3.44902 12.029 4.41326 12.0687 6.41177 11.9949Z" fill="url(#paint3_linear_4_1177)"/>  <path d="M32.4572 35.1264C30.6403 34.4921 28.5231 33.5934 26.7266 32.9288C24.5193 34.0953 21.8832 34.7132 19.21 34.5681C15.699 34.279 12.3062 32.5597 10.709 31.2318C10.6652 31.3052 10.6207 31.3791 10.5754 31.4543C10.4759 31.6196 10.3693 31.7964 10.2549 31.9932C8.73216 34.6109 8.70585 35.5768 8.80947 36.3418C8.8215 36.4309 8.82407 36.519 8.81814 36.6052C11.448 38.3766 14.5235 39.5377 17.8415 39.8907C19.0767 39.9935 19.0219 39.9999 20.4153 39.9999C25.1763 39.9005 29.5272 38.1429 32.9106 35.2783C32.742 35.2259 32.5891 35.1726 32.4572 35.1264Z" fill="url(#paint4_linear_4_1177)"/>  <path d="M8.03155 30.6952C8.15322 30.4861 8.26637 30.2982 8.37218 30.1225C8.54998 29.8273 8.69452 29.586 8.81923 29.3444C5.48885 25.5392 4.45074 19.3424 6.48705 14.5719C4.51087 14.6532 2.8807 14.6078 1.02228 13.7102C-1.52348 20.9093 0.847358 29.7431 6.33673 34.6295C6.61722 33.2323 7.3126 31.9312 8.03155 30.6952Z" fill="url(#paint5_linear_4_1177)"/>  <path d="M8.00945 20.0098C8.46018 34.8225 29.1613 36.3167 31.8242 21.8655C32.9569 14.5419 27.2874 8.01861 19.9885 8.00854C13.3833 8.00854 8.00945 13.3923 8.00945 20.0098ZM25.0403 19.8833C25.0109 18.7045 24.5697 17.5669 23.798 16.6798C23.331 16.1432 23.3867 15.329 23.9224 14.8612C24.4579 14.3934 25.2706 14.4491 25.7376 14.9858C26.9025 16.3245 27.5685 18.041 27.6127 19.819C27.6636 21.8615 26.9175 23.8018 25.5118 25.2822C24.1061 26.7626 22.2091 27.606 20.1703 27.6569C20.1051 27.6586 20.0397 27.6594 19.9747 27.6594C15.9442 27.7398 12.364 24.2354 12.3469 20.2008C12.2999 18.317 12.9446 16.4896 14.1623 15.0552C14.6228 14.5129 15.4348 14.4472 15.976 14.9085C16.5173 15.3697 16.5828 16.1832 16.1224 16.7255C15.3154 17.6761 14.8881 18.8874 14.9192 20.1363C14.9308 22.8611 17.3837 25.2022 20.1061 25.0797C21.4578 25.0459 22.7154 24.4867 23.6474 23.5052C24.5793 22.5239 25.074 21.2375 25.0403 19.8833ZM21.2664 12.5245V16.3334C21.1984 18.0437 18.7606 18.0423 18.6932 16.3334V12.5245C18.7613 10.8143 21.199 10.8156 21.2664 12.5245Z" fill="url(#paint6_linear_4_1177)"/>  <defs>    <linearGradient id="paint0_linear_4_1177" x1="0" y1="19.9999" x2="39.9847" y2="19.9999" gradientUnits="userSpaceOnUse">      <stop stop-color="#6A5CFF"/>      <stop offset="1" stop-color="#A890FF"/>    </linearGradient>    <linearGradient id="paint1_linear_4_1177" x1="0" y1="19.9999" x2="39.9847" y2="19.9999" gradientUnits="userSpaceOnUse">      <stop stop-color="#6A5CFF"/>      <stop offset="1" stop-color="#A890FF"/>    </linearGradient>    <linearGradient id="paint2_linear_4_1177" x1="0" y1="19.9999" x2="39.9847" y2="19.9999" gradientUnits="userSpaceOnUse">      <stop stop-color="#6A5CFF"/>      <stop offset="1" stop-color="#A890FF"/>    </linearGradient>    <linearGradient id="paint3_linear_4_1177" x1="0" y1="19.9999" x2="39.9847" y2="19.9999" gradientUnits="userSpaceOnUse">      <stop stop-color="#6A5CFF"/>      <stop offset="1" stop-color="#A890FF"/>    </linearGradient>    <linearGradient id="paint4_linear_4_1177" x1="0" y1="19.9999" x2="39.9847" y2="19.9999" gradientUnits="userSpaceOnUse">      <stop stop-color="#6A5CFF"/>      <stop offset="1" stop-color="#A890FF"/>    </linearGradient>    <linearGradient id="paint5_linear_4_1177" x1="0" y1="19.9999" x2="39.9847" y2="19.9999" gradientUnits="userSpaceOnUse">      <stop stop-color="#6A5CFF"/>      <stop offset="1" stop-color="#A890FF"/>    </linearGradient>    <linearGradient id="paint6_linear_4_1177" x1="0" y1="19.9999" x2="39.9847" y2="19.9999" gradientUnits="userSpaceOnUse">      <stop stop-color="#6A5CFF"/>      <stop offset="1" stop-color="#A890FF"/>    </linearGradient>  </defs></svg>