<svg width="22" height="32" viewBox="0 0 22 32" fill="none" xmlns="http://www.w3.org/2000/svg">
  <path d="M16.5327 14.0472V10.7269C15.3665 10.9699 13.4515 11.2417 10.7195 11.2417C8.14844 11.2417 6.40495 10.9602 5.30592 10.6797V14.0472C5.30592 17.3778 7.82409 20.0875 10.9193 20.0875C14.0145 20.0874 16.5327 17.3778 16.5327 14.0472Z" fill="url(#paint0_linear_40000032_4102)"/>
  <path d="M15.4161 25.9641C14.4482 25.4349 13.7016 24.5525 13.3523 23.4866L12.8276 21.8857C12.2173 22.0513 11.5779 22.1396 10.9194 22.1396C10.358 22.1396 9.81082 22.0749 9.28352 21.9534L8.73169 23.5004C8.36822 24.5192 7.64436 25.3552 6.71642 25.8653C9.50649 26.9324 12.5959 26.9706 15.4161 25.9641Z" fill="url(#paint1_linear_40000032_4102)"/>
  <path d="M6.2873 32V27.8956C5.45361 27.5979 4.64138 27.2219 3.86138 26.7684L2.17729 27.2257C1.35861 27.448 0.726116 28.0983 0.526673 28.9228L0.0229647 31.0047C-0.0996925 31.5118 0.284487 32 0.806156 32H6.2873Z" fill="url(#paint2_linear_40000032_4102)"/>
  <path d="M19.8865 27.4563L18.2351 26.9381C16.0421 28.1446 13.6189 28.7462 11.1996 28.7462C10.2407 28.7462 9.28258 28.6514 8.33937 28.4632V32H21.0809C21.5958 32 21.9786 31.5236 21.8678 31.0208L21.461 29.1744C21.2823 28.3634 20.6789 27.705 19.8865 27.4563Z" fill="url(#paint3_linear_40000032_4102)"/>
  <path d="M1.63954 25.2453C6.29212 23.9548 6.33167 24.4612 7.36756 21.2166C4.92437 19.8621 3.25385 17.1569 3.25385 14.0471V9.23971C3.25385 8.87018 3.43997 8.52179 3.76157 8.33962C4.08142 8.15833 4.46121 8.15495 4.77731 8.34206C5.34904 8.63757 7.31268 9.1894 10.7195 9.1894C14.2397 9.1894 16.4953 8.69639 17.1962 8.43568C17.5116 8.31472 17.8639 8.35765 18.1424 8.54908C18.4208 8.74045 18.5847 9.0576 18.5847 9.39548V14.0469C18.5847 17.0498 17.0273 19.6758 14.7205 21.0722C15.6111 25.3196 17.9221 24.3048 20.9928 25.6865V9.86126C20.9928 4.41503 16.5778 0 11.1316 0C5.68541 0 0.859975 4.41503 0.859975 9.86126V25.5397C1.10735 25.4184 1.36781 25.3191 1.63954 25.2453Z" fill="url(#paint4_linear_40000032_4102)"/>
  <defs>
    <linearGradient id="paint0_linear_40000032_4102" x1="0" y1="16" x2="21.887" y2="16" gradientUnits="userSpaceOnUse">
      <stop stop-color="#6A5CFF"/>
      <stop offset="1" stop-color="#A890FF"/>
    </linearGradient>
    <linearGradient id="paint1_linear_40000032_4102" x1="0" y1="16" x2="21.887" y2="16" gradientUnits="userSpaceOnUse">
      <stop stop-color="#6A5CFF"/>
      <stop offset="1" stop-color="#A890FF"/>
    </linearGradient>
    <linearGradient id="paint2_linear_40000032_4102" x1="0" y1="16" x2="21.887" y2="16" gradientUnits="userSpaceOnUse">
      <stop stop-color="#6A5CFF"/>
      <stop offset="1" stop-color="#A890FF"/>
    </linearGradient>
    <linearGradient id="paint3_linear_40000032_4102" x1="0" y1="16" x2="21.887" y2="16" gradientUnits="userSpaceOnUse">
      <stop stop-color="#6A5CFF"/>
      <stop offset="1" stop-color="#A890FF"/>
    </linearGradient>
    <linearGradient id="paint4_linear_40000032_4102" x1="0" y1="16" x2="21.887" y2="16" gradientUnits="userSpaceOnUse">
      <stop stop-color="#6A5CFF"/>
      <stop offset="1" stop-color="#A890FF"/>
    </linearGradient>
  </defs>
</svg>
