<svg width="32" height="30" viewBox="0 0 32 30" fill="none" xmlns="http://www.w3.org/2000/svg">
  <path d="M1.875 1.875V3.75H0.9375C0.419312 3.75 0 4.16931 0 4.6875C0 5.20569 0.419312 5.625 0.9375 5.625H14.125C14.6432 5.625 15.0625 5.20569 15.0625 4.6875C15.0625 4.16931 14.6432 3.75 14.125 3.75H13.1875V1.875C13.1875 0.841375 12.3471 0 11.3125 0H3.8125C2.77794 0 1.875 0.841375 1.875 1.875Z" fill="url(#paint0_linear_40000032_4133)"/>
  <path d="M0.9375 30H14.125C14.6432 30 15.0625 29.5807 15.0625 29.0625V22.5C15.0625 19.8372 13.1982 17.6126 10.7094 17.0328C10.0405 18.0648 8.88037 18.75 7.5625 18.75C6.24412 18.75 5.08231 18.0654 4.41356 17.0335C1.92581 17.6141 0 19.838 0 22.5V29.0625C0 29.5807 0.419312 30 0.9375 30ZM7.5625 21.5625C8.08025 21.5625 8.5 21.9821 8.5 22.5C8.5 23.0177 8.08025 23.4375 7.5625 23.4375C7.04475 23.4375 6.625 23.0177 6.625 22.5C6.625 21.9821 7.04475 21.5625 7.5625 21.5625ZM7.5625 25.3125C8.08025 25.3125 8.5 25.7321 8.5 26.25C8.5 26.7677 8.08025 27.1875 7.5625 27.1875C7.04475 27.1875 6.625 26.7677 6.625 26.25C6.625 25.7321 7.04475 25.3125 7.5625 25.3125Z" fill="url(#paint1_linear_40000032_4133)"/>
  <path d="M7.5625 16.875C8.59706 16.875 9.4375 16.0336 9.4375 15V14.6786C11.6806 13.8867 13.1875 11.7554 13.1875 9.375V7.5H1.875V9.05637C1.875 11.5301 3.47925 13.8363 5.6875 14.664V15C5.6875 16.0336 6.52794 16.875 7.5625 16.875Z" fill="url(#paint2_linear_40000032_4133)"/>
  <path d="M27.5844 20.7828C26.9155 21.8148 25.7554 22.5 24.4375 22.5C23.1191 22.5 21.9573 21.8154 21.2886 20.7835C18.8008 21.3641 16.9375 23.588 16.9375 26.25V29.0625C16.9375 29.5807 17.3568 30 17.875 30H31.0625C31.5807 30 32 29.5807 32 29.0625V26.25C32 23.5872 30.0732 21.3626 27.5844 20.7828ZM24.4375 27.1875C23.9198 27.1875 23.5 26.7677 23.5 26.25C23.5 25.7321 23.9198 25.3125 24.4375 25.3125C24.9552 25.3125 25.375 25.7321 25.375 26.25C25.375 26.7677 24.9552 27.1875 24.4375 27.1875Z" fill="url(#paint3_linear_40000032_4133)"/>
  <path d="M28.0667 4.72744C27.6617 3.09381 26.1939 1.875 24.4375 1.875C22.6811 1.875 21.2133 3.09381 20.8083 4.72744C21.8884 4.12363 23.1143 3.75 24.4375 3.75C25.7607 3.75 26.9866 4.12363 28.0667 4.72744Z" fill="url(#paint4_linear_40000032_4133)"/>
  <path d="M18.9072 10.3125H23.8076C25.8502 10.3125 27.487 8.40544 26.9287 6.23269C26.1744 5.85637 25.3362 5.625 24.4375 5.625C21.6567 5.625 19.3568 7.65769 18.9072 10.3125Z" fill="url(#paint5_linear_40000032_4133)"/>
  <path d="M24.4375 20.625C25.4721 20.625 26.3125 19.7836 26.3125 18.75V18.4286C28.5556 17.6367 30.0625 15.5054 30.0625 13.125V11.25C30.0625 9.94719 29.5992 8.76181 28.8531 7.80725C28.4757 10.4385 26.2469 12.1875 23.8076 12.1875H18.8125V12.8064C18.8125 15.2801 20.3542 17.5863 22.5625 18.414V18.75C22.5625 19.7836 23.4029 20.625 24.4375 20.625Z" fill="url(#paint6_linear_40000032_4133)"/>
  <defs>
    <linearGradient id="paint0_linear_40000032_4133" x1="0" y1="15" x2="32" y2="15" gradientUnits="userSpaceOnUse">
      <stop stop-color="#6A5CFF"/>
      <stop offset="1" stop-color="#A890FF"/>
    </linearGradient>
    <linearGradient id="paint1_linear_40000032_4133" x1="0" y1="15" x2="32" y2="15" gradientUnits="userSpaceOnUse">
      <stop stop-color="#6A5CFF"/>
      <stop offset="1" stop-color="#A890FF"/>
    </linearGradient>
    <linearGradient id="paint2_linear_40000032_4133" x1="0" y1="15" x2="32" y2="15" gradientUnits="userSpaceOnUse">
      <stop stop-color="#6A5CFF"/>
      <stop offset="1" stop-color="#A890FF"/>
    </linearGradient>
    <linearGradient id="paint3_linear_40000032_4133" x1="0" y1="15" x2="32" y2="15" gradientUnits="userSpaceOnUse">
      <stop stop-color="#6A5CFF"/>
      <stop offset="1" stop-color="#A890FF"/>
    </linearGradient>
    <linearGradient id="paint4_linear_40000032_4133" x1="0" y1="15" x2="32" y2="15" gradientUnits="userSpaceOnUse">
      <stop stop-color="#6A5CFF"/>
      <stop offset="1" stop-color="#A890FF"/>
    </linearGradient>
    <linearGradient id="paint5_linear_40000032_4133" x1="0" y1="15" x2="32" y2="15" gradientUnits="userSpaceOnUse">
      <stop stop-color="#6A5CFF"/>
      <stop offset="1" stop-color="#A890FF"/>
    </linearGradient>
    <linearGradient id="paint6_linear_40000032_4133" x1="0" y1="15" x2="32" y2="15" gradientUnits="userSpaceOnUse">
      <stop stop-color="#6A5CFF"/>
      <stop offset="1" stop-color="#A890FF"/>
    </linearGradient>
  </defs>
</svg>
