<svg width="20" height="20" viewBox="0 0 20 20" fill="none" xmlns="http://www.w3.org/2000/svg">
  <path d="M17.4997 12.5H19.1663V14.1667H17.4997V12.5ZM17.4997 9.16667H19.1663V10.8333H17.4997V9.16667ZM19.1663 15.8333H17.4997V17.5C18.333 17.5 19.1663 16.6667 19.1663 15.8333ZM10.833 2.5H12.4997V4.16667H10.833V2.5ZM17.4997 5.83333H19.1663V7.5H17.4997V5.83333ZM17.4997 2.5V4.16667H19.1663C19.1663 3.33333 18.333 2.5 17.4997 2.5ZM0.833008 5.83333H2.49967V7.5H0.833008V5.83333ZM14.1663 2.5H15.833V4.16667H14.1663V2.5ZM14.1663 15.8333H15.833V17.5H14.1663V15.8333ZM2.49967 2.5C1.66634 2.5 0.833008 3.33333 0.833008 4.16667H2.49967V2.5ZM7.49967 2.5H9.16634V4.16667H7.49967V2.5ZM4.16634 2.5H5.83301V4.16667H4.16634V2.5ZM0.833008 9.16667V15.8333C0.833008 16.75 1.58301 17.5 2.49967 17.5H12.4997V9.16667H0.833008ZM2.49967 15.8333L4.58301 13.1583L6.07467 14.95L8.15801 12.2667L10.833 15.8333H2.49967Z" fill="white"/>
</svg>
