<svg width="20" height="20" viewBox="0 0 20 20" fill="none" xmlns="http://www.w3.org/2000/svg">
  <path d="M11.6666 1.66675H3.33329C2.41663 1.66675 1.66663 2.41675 1.66663 3.33341V11.6667H3.33329V3.33341H11.6666V1.66675ZM15 5.00008H6.66663C5.74996 5.00008 4.99996 5.75008 4.99996 6.66675V15.0001H6.66663V6.66675H15V5.00008ZM16.6666 8.33341H9.99996C9.08329 8.33341 8.33329 9.08341 8.33329 10.0001V16.6667C8.33329 17.5834 9.08329 18.3334 9.99996 18.3334H16.6666C17.5833 18.3334 18.3333 17.5834 18.3333 16.6667V10.0001C18.3333 9.08341 17.5833 8.33341 16.6666 8.33341ZM16.6666 16.6667H9.99996V10.0001H16.6666V16.6667Z" fill="#A9B2C8"/>
</svg>
