<svg width="32" height="32" viewBox="0 0 32 32" fill="none" xmlns="http://www.w3.org/2000/svg">
  <path d="M3.54004 4.82253L1.39794 3.63227C0.77345 3.28504 0 3.73574 0 4.45485V13.49C0 14.21 0.77483 14.66 1.39794 14.3126L3.54004 13.1223C1.66348 10.6733 1.6636 7.27151 3.54004 4.82253Z" fill="url(#paint0_linear_40000032_4108)"/>
  <path d="M5.74989 5.20904C4.73168 6.05069 4.01564 7.44305 4.01564 8.97244C4.01564 13.5062 9.67173 15.6798 12.6894 12.2483C14.3438 10.3936 14.3391 7.54281 12.6894 5.69656C10.9076 3.67042 7.81619 3.43726 5.74989 5.20904Z" fill="url(#paint1_linear_40000032_4108)"/>
  <path d="M4.82253 3.54004C7.27163 1.66348 10.6734 1.6636 13.1224 3.54004L14.3126 1.39794C14.6598 0.773512 14.2091 0 13.49 0H4.45485C3.73894 0 3.28354 0.770814 3.63227 1.39794L4.82253 3.54004Z" fill="url(#paint2_linear_40000032_4108)"/>
  <path d="M16.5469 3.63227L14.4048 4.82253C16.2813 7.27163 16.2813 10.6734 14.4048 13.1224C16.6466 14.3681 16.6655 14.4312 17.0037 14.4312C17.5246 14.4312 17.9449 14.0087 17.9449 13.49V4.45485C17.9449 3.74007 17.1754 3.28285 16.5469 3.63227Z" fill="url(#paint3_linear_40000032_4108)"/>
  <path d="M9.91361 21.719V17.9449H13.49C14.2048 17.9449 14.662 17.1755 14.3126 16.547L13.1224 14.4049C10.6731 16.2815 7.27151 16.2813 4.82253 14.4049L3.63227 16.547C3.28504 17.1716 3.73574 17.9449 4.45485 17.9449H8.03128V21.719L1.68406 30.5074C1.37969 30.9288 1.47462 31.5171 1.89601 31.8214C2.31966 32.1274 2.90745 32.0285 3.21 31.6095L4.3783 29.9918H13.5665L14.7348 31.6095C14.9188 31.8643 15.2067 31.9997 15.4986 31.9997C16.2549 31.9997 16.7139 31.1348 16.2608 30.5074L9.91361 21.719ZM8.03128 28.1095H5.73778L8.03128 24.9339V28.1095ZM9.91361 28.1095V24.9339L12.2071 28.1095H9.91361Z" fill="url(#paint4_linear_40000032_4108)"/>
  <path d="M31.3803 14.1112L27.984 12.8764V10.9803C27.984 10.4607 27.5623 10.0391 27.0428 10.0391H22.0233C21.5037 10.0391 21.0821 10.4607 21.0821 10.9803V13.7686C21.0821 15.218 22.1451 16.4425 23.5919 16.8201V18.5723H21.0194C20.4996 18.5723 20.0782 18.9937 20.0782 19.5135C20.0782 20.0333 20.4996 20.4547 21.0194 20.4547H23.5919V22.269L18.7023 30.5813C18.332 31.2107 18.791 31.9998 19.5126 31.9998C19.8352 31.9998 20.1493 31.8338 20.3247 31.5357L23.5919 25.9814V31.0585C23.5919 31.5782 24.0133 31.9996 24.533 31.9996C25.0528 31.9996 25.4742 31.5782 25.4742 31.0585V25.9814L28.7414 31.5356C28.9167 31.8338 29.2308 31.9997 29.5534 31.9997C30.2745 31.9997 30.7343 31.2111 30.3637 30.5812L25.4742 22.269V20.4547H28.0467C28.5665 20.4547 28.9879 20.0333 28.9879 19.5135C28.9879 18.9937 28.5665 18.5723 28.0467 18.5723H25.4742V16.8209C26.5572 16.5384 27.4249 15.7811 27.7926 14.8102C30.9586 15.9613 30.8269 15.9371 31.0585 15.9371C31.4431 15.9371 31.8039 15.6999 31.9431 15.3178C32.1207 14.829 31.8685 14.2888 31.3803 14.1112Z" fill="url(#paint5_linear_40000032_4108)"/>
  <defs>
    <linearGradient id="paint0_linear_40000032_4108" x1="0" y1="15.9999" x2="32" y2="15.9999" gradientUnits="userSpaceOnUse">
      <stop stop-color="#6A5CFF"/>
      <stop offset="1" stop-color="#A890FF"/>
    </linearGradient>
    <linearGradient id="paint1_linear_40000032_4108" x1="0" y1="15.9999" x2="32" y2="15.9999" gradientUnits="userSpaceOnUse">
      <stop stop-color="#6A5CFF"/>
      <stop offset="1" stop-color="#A890FF"/>
    </linearGradient>
    <linearGradient id="paint2_linear_40000032_4108" x1="0" y1="15.9999" x2="32" y2="15.9999" gradientUnits="userSpaceOnUse">
      <stop stop-color="#6A5CFF"/>
      <stop offset="1" stop-color="#A890FF"/>
    </linearGradient>
    <linearGradient id="paint3_linear_40000032_4108" x1="0" y1="15.9999" x2="32" y2="15.9999" gradientUnits="userSpaceOnUse">
      <stop stop-color="#6A5CFF"/>
      <stop offset="1" stop-color="#A890FF"/>
    </linearGradient>
    <linearGradient id="paint4_linear_40000032_4108" x1="0" y1="15.9999" x2="32" y2="15.9999" gradientUnits="userSpaceOnUse">
      <stop stop-color="#6A5CFF"/>
      <stop offset="1" stop-color="#A890FF"/>
    </linearGradient>
    <linearGradient id="paint5_linear_40000032_4108" x1="0" y1="15.9999" x2="32" y2="15.9999" gradientUnits="userSpaceOnUse">
      <stop stop-color="#6A5CFF"/>
      <stop offset="1" stop-color="#A890FF"/>
    </linearGradient>
  </defs>
</svg>
