<svg width="98" height="98" viewBox="0 0 98 98" fill="none" xmlns="http://www.w3.org/2000/svg">
  <g filter="url(#filter0_d_40000179_1059)">
    <rect x="8.5" y="8.5" width="81" height="81" rx="40.5" stroke="url(#paint0_linear_40000179_1059)" shape-rendering="crispEdges"/>
    <path d="M49.0003 23.1666C34.7403 23.1666 23.167 34.74 23.167 49C23.167 63.26 34.7403 74.8333 49.0003 74.8333C63.2603 74.8333 74.8337 63.26 74.8337 49C74.8337 34.74 63.2603 23.1666 49.0003 23.1666ZM49.0003 33.5C53.9862 33.5 58.042 37.5558 58.042 42.5416C58.042 47.5275 53.9862 51.5833 49.0003 51.5833C44.0145 51.5833 39.9587 47.5275 39.9587 42.5416C39.9587 37.5558 44.0145 33.5 49.0003 33.5ZM49.0003 69.6666C43.7562 69.6666 37.5562 67.5483 33.1387 62.2266C37.5045 58.8166 43.007 56.75 49.0003 56.75C54.9937 56.75 60.4962 58.8166 64.862 62.2266C60.4445 67.5483 54.2445 69.6666 49.0003 69.6666Z" fill="white" fill-opacity="0.2"/>
  </g>
  <defs>
    <filter id="filter0_d_40000179_1059" x="-4" y="0" width="106" height="106" filterUnits="userSpaceOnUse" color-interpolation-filters="sRGB">
      <feFlood flood-opacity="0" result="BackgroundImageFix"/>
      <feColorMatrix in="SourceAlpha" type="matrix" values="0 0 0 0 0 0 0 0 0 0 0 0 0 0 0 0 0 0 127 0" result="hardAlpha"/>
      <feOffset dy="4"/>
      <feGaussianBlur stdDeviation="6"/>
      <feComposite in2="hardAlpha" operator="out"/>
      <feColorMatrix type="matrix" values="0 0 0 0 0.415686 0 0 0 0 0.360784 0 0 0 0 1 0 0 0 0.5 0"/>
      <feBlend mode="normal" in2="BackgroundImageFix" result="effect1_dropShadow_40000179_1059"/>
      <feBlend mode="normal" in="SourceGraphic" in2="effect1_dropShadow_40000179_1059" result="shape"/>
    </filter>
    <linearGradient id="paint0_linear_40000179_1059" x1="8" y1="49" x2="90" y2="49" gradientUnits="userSpaceOnUse">
      <stop stop-color="white" stop-opacity="0.2"/>
      <stop offset="1" stop-color="white" stop-opacity="0.06"/>
    </linearGradient>
  </defs>
</svg>
