<svg width="76" height="84" viewBox="0 0 76 84" fill="none" xmlns="http://www.w3.org/2000/svg">
<path opacity="0.2" d="M75.9755 14.6708C75.72 11.0873 73.2555 8.69098 70.27 7.10359C66.4706 5.0884 62.7714 3.91677 58.1078 2.84201C56.9571 2.57968 54.4397 2.01119 50.5527 1.14218C46.8034 0.304999 43.0068 -0.0704612 39.1671 0.0108531C37.23 0.0546922 34.3694 0.217321 30.5792 0.501568C29.4094 0.589246 28.8884 0.848038 28.7981 2.03593C28.7606 2.5422 28.683 2.55493 28.5644 2.07341C28.5489 2.01684 28.4493 1.94543 28.2615 1.85775C27.2789 1.40805 25.9877 2.02957 25.2888 2.77342C24.4812 3.63606 24.2531 4.42021 23.7604 5.36346C23.7138 5.45397 23.639 5.507 23.5387 5.52255C16.979 6.52519 15.0602 13.3238 14.0246 18.8008C13.9215 19.3446 13.4069 22.1687 12.4807 27.2802C11.8721 30.648 10.5216 33.5788 8.42848 36.072C7.16836 37.5745 4.96296 39.3995 3.76495 40.562C0.0466979 44.1674 -1.16684 49.3291 1.2567 53.9463C1.5405 54.4865 2.00501 55.3145 2.65731 56.4331C3.15925 57.3014 3.7113 58.0735 4.31348 58.7516C5.99153 60.6544 7.96326 62.6194 8.44966 64.9782C8.48425 65.1437 8.42142 65.3155 8.28729 65.4215C7.16412 66.2962 5.3117 67.3681 3.9605 66.6653C2.6319 65.9745 2.46318 64.1566 2.92769 62.8379C3.059 62.4695 2.98699 62.4256 2.71238 62.7007C1.68945 63.738 1.86382 66.4814 3.12748 67.2656C4.91142 68.3778 6.78926 67.1341 8.22729 66.1505C8.52379 65.9504 8.61133 66.0162 8.49555 66.3535C7.63146 68.8813 4.94601 70.5648 2.36576 69.5339C2.14762 69.4462 2.09467 69.5056 2.20339 69.7121C2.83027 70.8809 4.07204 72.7518 5.5722 72.7929C7.3159 72.8395 8.76664 72.2555 9.92652 71.0372C10.0543 70.9057 10.1171 70.9311 10.1171 71.115V72.9491C10.1171 73.0488 10.0861 73.14 10.0232 73.215C9.22127 74.2148 8.7384 74.8088 8.56967 74.999C7.83054 75.8333 7.93008 75.9521 8.869 75.3518C9.15632 75.1672 9.68649 74.7769 10.4602 74.1773C10.5569 74.1024 10.6127 74.1243 10.6254 74.2459C10.9812 78.1391 13.9568 79.6197 17.572 78.9727C17.7838 78.9353 17.8431 79.013 17.7464 79.2068C14.2561 86.2741 11.7789 93.9473 12.0034 101.802C12.091 104.886 12.3373 107.885 12.7461 110.803C12.7616 110.916 12.8583 111 12.9706 111H65.5253C65.5564 111 65.5874 110.991 65.6157 110.972C65.6813 110.919 65.6933 110.825 65.6439 110.76C62.1911 106.289 58.5194 101.349 54.6261 95.9441C51.8969 92.1513 49.6816 88.4582 47.9816 84.8656C46.5217 81.7728 45.664 78.6015 46.0847 75.2613C46.0975 75.1552 46.1532 75.1206 46.2563 75.1581C46.749 75.349 47.1889 75.3921 47.5757 75.286C47.7346 75.2457 47.7346 75.2019 47.5785 75.1517C46.209 74.7359 46.437 73.4455 46.6679 72.4209C46.6926 72.3149 46.7582 72.2519 46.8641 72.23C49.8369 71.6771 51.7274 70.0678 52.535 67.3999C52.9939 65.8818 52.9283 63.9536 52.3508 62.4638C51.8919 61.2766 51.7147 61.3169 51.8206 62.5854C51.9329 63.9261 51.2622 66.0218 50.0614 66.8286C49.971 66.8908 49.8807 66.8972 49.7839 66.8477C49.3533 66.6356 48.9728 66.3697 48.6452 66.0445C48.5641 65.9667 48.5485 65.8755 48.5951 65.7729C49.1189 64.6544 49.8644 63.5294 50.8288 62.3988C52.1983 60.793 53.9357 60.187 56.0352 60.5801C57.7605 60.9054 61.3192 61.7921 64.2143 61.9639C65.4808 62.0389 66.551 61.6889 67.4271 60.9174C69.1362 59.4177 68.7593 57.2215 68.179 55.2558C68.1416 55.1123 68.2256 54.9624 68.3696 54.9214C69.6608 54.5494 71.3826 53.8777 70.419 52.1468C70.2665 51.8781 69.9481 51.6066 69.7575 51.3379C69.7448 51.3223 69.7356 51.3032 69.7292 51.2849C69.6826 51.1597 69.7483 51.0254 69.8697 50.9787C70.4564 50.7666 70.94 50.4943 71.3233 50.1634C72.8736 48.8136 71.0331 47.5324 70.4656 46.4576C70.45 46.4265 70.4345 46.3954 70.4253 46.3607C70.3477 46.0857 70.5065 45.7986 70.7811 45.7173C72.5121 45.2202 74.9547 44.3456 74.9173 42.1147C74.9018 41.2683 74.1718 40.4248 73.5887 39.8711C71.9819 38.3467 70.7253 37.0251 69.8175 35.9094C69.5146 35.5374 69.252 35.1337 69.0409 34.7024C68.8362 34.2845 68.6477 33.8164 68.5489 33.3603C68.4239 32.7827 68.3555 31.9603 68.5362 31.3869C68.6682 30.9683 69.0565 30.6466 69.365 30.3538C73.1362 26.7824 74.858 22.4239 74.5304 17.2813C74.3342 14.1631 73.3854 11.4825 71.5393 9.11099C71.2739 8.77371 71.3148 8.7327 71.6544 8.9922C75.0514 11.5667 76.1901 15.0031 75.0698 19.3085C75.0543 19.3707 75.0761 19.4117 75.1418 19.4273L75.2385 19.4521C75.254 19.4584 75.2632 19.4521 75.2696 19.433C75.8527 17.8774 76.0871 16.2865 75.9713 14.6686L75.9755 14.6708ZM6.9128 41.1149C4.38266 44.6015 2.22103 47.8258 2.12785 52.3313C2.1215 52.6566 2.06572 52.6658 1.9563 52.3596C1.03009 49.7074 1.25105 47.2609 2.61778 45.0237C3.49457 43.5862 4.93543 42.5114 6.545 41.1587C6.68195 41.0463 6.75679 40.9841 6.77302 40.9714C7.12247 40.7182 7.16906 40.7649 6.91351 41.1149H6.9128ZM15.3977 78.6567C14.3338 78.4382 13.4697 77.8725 12.8026 76.9604C12.11 76.02 11.6201 74.8201 12.0698 73.6923C12.1227 73.5607 12.1637 73.5643 12.1912 73.7015C12.4157 74.7013 12.5315 75.2075 12.5343 75.2231C12.9339 76.9038 13.9942 77.8004 15.4195 78.5973C15.5346 78.6659 15.529 78.685 15.3977 78.6567Z" fill="white"/>
</svg>
