<svg width="84" height="86" viewBox="0 0 84 86" fill="none" xmlns="http://www.w3.org/2000/svg">
<g opacity="0.2">
<path d="M64.3927 70.0719C62.8623 70.132 61.3509 70.2148 59.8472 70.6349C58.6323 70.9744 57.4609 70.6107 56.5359 69.6071C58.2143 70.1306 59.7948 69.9916 61.2736 69.0821C61.6171 68.8708 62.1557 68.6836 62.0142 68.1781C61.8865 67.7215 61.3703 67.9249 61.0271 67.926C60.2207 67.9286 59.4929 68.223 58.7292 68.4553C56.831 69.0328 54.0616 66.8699 53.6621 64.876C53.6222 64.6768 53.538 64.4864 53.4182 64.12C53.3069 71.6746 55.4799 74.7127 61.5721 77.3698C66.5651 79.5474 71.9455 80.5898 77.1681 82.0907C79.1128 82.6496 81.0262 83.318 82.9491 83.9509C84.0573 84.3157 84.2972 84.8883 83.63 85.9656C82.6435 87.5585 80.9613 88.1259 79.4493 88.7378C67.7251 93.4827 55.6778 97.2236 43.302 99.8944C42.606 100.045 41.94 100.029 41.2471 99.8823C31.7414 97.8679 22.3989 95.3195 13.2997 91.8715C9.82972 90.5566 6.14048 89.8181 2.87326 87.9566C2.59633 87.7988 2.31426 87.6499 2.03571 87.4948C1.01967 86.9289 -0.0122279 86.0324 0.000109542 85.0213C0.0132929 83.9468 1.49499 83.884 2.40408 83.5624C8.14055 81.5328 14.1546 80.4605 19.9323 78.5622C22.3866 77.7558 24.6335 76.6159 26.7305 75.0974C29.4828 73.1041 30.808 70.416 31.0552 67.1219C31.1576 65.7567 31.201 64.3871 30.9962 62.9717C30.9488 63.328 30.8465 63.687 30.8639 64.0402C30.9269 65.3181 30.1651 66.2481 29.7181 67.3356C28.8011 69.5661 27.1536 69.1029 25.5468 69.2064C25.2427 69.226 24.939 69.252 24.233 69.3055C25.6834 69.9775 26.8447 70.2352 28.265 70.4806C27.2163 71.3246 26.3283 70.9093 25.5114 70.7243C24.673 70.5344 23.8639 70.3237 22.9923 70.4717C18.8648 71.1725 16.2647 69.5852 14.9784 65.5927C14.9152 65.3968 14.8865 65.1898 14.802 64.8092C13.55 65.6553 12.4023 66.4663 11.219 67.2222C9.39247 68.389 7.14693 68.3285 5.68392 67.1177C4.00343 65.7268 3.55604 63.6989 4.64553 61.4665C4.83997 63.5235 4.73718 65.7068 7.28877 66.4682C8.64447 66.8726 9.78748 66.4769 11.3738 65.8405C9.87378 65.3991 9.67729 64.398 9.52275 63.3377C9.40241 62.5118 8.92034 61.9559 8.15275 61.5113C4.57624 59.4396 2.31707 54.6659 2.98174 50.5099C3.2729 48.6894 3.23625 47.266 1.59855 45.8576C-0.452067 44.0941 -0.135532 40.9278 2.15182 39.5725C0.662875 41.9451 1.22737 43.7824 3.09737 45.6933C3.82803 42.7969 5.17837 40.5271 7.27742 38.6993C9.30231 36.9361 11.9593 36.2116 14.0101 34.4214C13.4405 34.3529 13.1237 34.3096 13.4226 33.4379C14.0336 31.6564 14.3092 29.7608 14.5429 27.8475C13.3614 29.0295 12.8452 30.5037 12.5282 32.0843C12.358 32.9328 12.4806 34.3876 11.5828 34.3473C10.6203 34.3042 10.984 32.887 10.8945 32.0501C10.7044 30.2719 11.3957 28.7254 12.3959 27.1965C9.66404 28.4664 8.9341 29.813 8.62918 34.1509C7.54688 33.0023 7.56802 31.8089 7.98094 30.5572C8.95277 27.6116 11.2853 25.8283 13.589 23.9932C15.9038 22.1493 17.6456 20.1136 18.0129 16.8337C18.5229 12.279 21.4871 8.96475 25.0073 6.18043C25.9726 5.41694 26.9857 4.69794 28.1347 4.27008C32.1558 2.77271 35.7169 0.0594194 40.2939 0.00242755C42.8775 -0.0297883 45.3002 0.244432 47.4701 1.6832C48.3149 2.24336 49.1461 2.51154 50.1625 2.41055C53.4636 2.08249 56.2049 3.32466 58.6113 5.48137C62.2138 8.71004 64.5732 12.6536 65.5769 17.3857C65.6539 17.7488 65.7181 18.1155 65.7667 18.4834C65.7864 18.6325 65.7482 18.7891 65.5681 19.0101C64.7077 17.3846 64.3509 15.5406 63.3585 13.956C63.9844 16.44 64.765 18.8942 64.9876 21.4663C64.8163 21.4898 64.7096 21.5388 64.6336 21.5093C64.1601 21.3251 64.1342 20.3154 63.4863 20.6576C62.8363 21.0009 63.2635 21.7104 63.4246 22.2391C63.9404 23.9315 64.7894 25.4729 65.7819 26.9227C67.6698 29.6804 68.8578 32.8877 71.2338 35.3283C71.5814 35.6855 71.7828 36.2718 72.6352 36.1657C71.6558 31.7193 68.4374 28.3844 66.5676 23.9261C67.8439 24.5374 68.2012 25.3871 68.7015 26.0644C71.0294 29.2164 72.998 32.5392 73.3937 36.549C73.4966 37.5917 74.3004 38.0637 75.007 38.6101C77.9032 40.8497 80.4823 43.3537 81.8818 46.8256C82.8748 49.2889 83.2429 51.773 81.9726 54.2603C81.6663 53.1091 82.2372 51.9316 81.7542 50.6354C80.7244 51.6482 79.7349 52.6372 78.4222 53.1917C77.9133 53.4066 78.0665 53.8871 78.112 54.3105C78.2413 55.5135 78.1822 56.6923 77.5877 58.1699C77.4606 56.8567 77.3933 55.9196 77.2718 54.9896C77.19 54.3642 76.908 53.9014 76.1592 53.8687C75.2405 53.8285 74.2329 53.3079 73.5109 54.2868C72.6751 55.4202 73.6106 56.1827 74.2187 56.9306C75.4346 58.4262 76.8251 59.7345 78.6319 60.5338C78.9848 60.6899 79.6096 60.7244 79.4766 61.2982C79.3693 61.7616 78.8267 61.7827 78.405 61.8294C76.5506 62.0351 74.8034 61.6855 72.9195 60.5676C73.8057 64.5125 73.9975 68.0361 70.1152 70.3757C68.0523 71.6188 66.2434 70.9813 64.3787 70.0587C65.2878 69.5296 66.2552 69.8971 67.1863 69.9247C68.1649 69.9537 69.0018 69.7185 69.6065 68.9832C71.2486 66.9865 71.2826 64.7083 70.6595 62.288C69.9699 65.2158 68.3393 67.3648 65.7048 68.7615C65.1492 69.0556 64.5881 69.3961 64.3927 70.0719ZM25.3437 35.7041C24.3059 36.9862 23.67 38.2709 23.6964 39.9166C23.7601 43.9036 24.9819 47.6339 26.0727 51.4013C27.7074 57.0474 31.7762 60.7293 36.3431 63.9886C37.1115 64.537 37.9701 64.9389 38.7396 63.6729C39.5327 62.3678 38.4474 62.0417 37.8179 61.6015C36.6857 60.8099 35.3313 60.2806 35.363 58.5698C35.3716 58.1066 34.948 58.2167 34.6674 58.1146C33.9584 57.8567 33.4652 57.3257 33.5037 56.5752C33.5478 55.7166 34.161 54.8035 34.8971 54.8484C36.7165 54.9593 37.5763 53.5054 38.894 52.8299C39.3837 52.5788 39.8648 52.1683 39.5003 51.5689C39.1413 50.9787 38.5092 50.7701 37.829 51.0542C37.5416 51.1743 37.2994 51.406 37.0441 51.5969C34.5859 53.4346 31.761 53.0542 29.9734 50.5716C26.8056 46.172 25.4436 41.1983 25.3437 35.7041ZM30.4296 10.3061C32.2608 9.56513 33.784 8.72857 35.4147 8.34654C37.3208 7.90001 37.9312 5.95429 39.557 5.27509C39.8819 5.13935 40.0425 4.91517 39.971 4.52732C39.8903 4.08851 39.6476 3.87654 39.2199 3.85668C37.3502 3.77 35.5194 3.887 33.7226 4.52612C32.5433 4.94563 32.3688 6.00026 32.8065 6.64661C33.6987 7.96438 32.7094 8.32472 32.0073 8.87211C31.5112 9.25891 30.9458 9.55587 30.4296 10.3061ZM76.649 41.9947C77.1588 44.0852 77.6386 46.1203 77.6242 48.244C77.6195 48.9239 77.7097 49.6163 77.852 50.2828C78.13 51.5854 78.4619 51.6531 79.484 50.7403C80.5853 49.7567 80.946 48.542 80.5714 47.1531C79.9688 44.9185 78.2293 43.528 76.649 41.9947ZM59.0399 44.5724C56.6687 50.6361 55.5027 57.2798 50.0157 61.7214C56.5616 57.8256 58.7303 51.6626 59.0399 44.5724ZM40.2784 39.4297C40.0701 39.4244 39.8618 39.419 39.6535 39.4136C39.0794 40.1227 38.7298 40.9577 38.5828 41.8364C38.2961 43.5514 38.0871 45.28 37.8837 47.0074C37.8315 47.4507 37.4051 48.4015 38.1385 48.2094C38.8185 48.0312 40.2956 48.8305 40.2833 47.1258C40.2646 44.5606 40.2784 41.9951 40.2784 39.4297ZM7.75061 50.1116C6.19708 52.6316 5.20587 55.2085 6.47522 58.1495C7.08532 59.5632 7.54736 60.0155 8.87197 60.1632C6.59132 56.9611 6.51426 53.6057 7.75061 50.1116ZM18.4086 18.2883C20.9917 15.4401 22.1295 12.2462 23.7368 9.32137C21.0914 11.6479 19.1138 14.3688 18.4086 18.2883ZM74.3757 45.788C75.2747 43.817 74.7935 41.5664 73.319 40.3845C72.9059 40.0533 72.4443 39.9094 72.4771 40.6086C72.5653 42.4894 72.7667 44.3684 74.3757 45.788Z" fill="white"/>
<path d="M47.1704 48.9773C46.7779 47.6085 45.4252 46.6817 43.9846 47.0271C42.9201 47.2824 41.8869 47.618 40.8779 48.0122C41.2067 46.1285 41.2395 44.1838 41.1796 42.2886C41.1301 40.7235 41.0481 39.1591 40.9787 37.5948C40.9487 36.9177 40.7772 36.2048 40.2701 35.7078C39.8477 35.2938 39.3654 35.031 38.7784 34.9316C38.2178 34.8367 37.5858 34.8865 37.0827 35.1852C36.8997 35.3161 36.7166 35.447 36.5335 35.5779C36.1946 35.8947 35.9545 36.2738 35.8133 36.715C34.3506 39.9615 33.9853 43.6405 34.0295 47.1645C34.0451 48.4077 34.0927 49.6553 34.1697 50.9026C34.0776 51.0362 33.9827 51.1681 33.8838 51.2972C33.6109 51.5974 33.3195 51.878 33.007 52.136C32.6477 51.6986 32.2977 51.2539 31.9601 50.7994C31.3829 49.9732 30.8573 49.1137 30.4107 48.2126C30.2588 47.8795 30.1074 47.5464 29.9562 47.2135C29.7901 46.8477 29.4543 46.5122 29.0803 46.2685C29.0802 46.2064 29.0803 46.1442 29.0798 46.0821C29.0715 44.9288 29.0572 43.7103 28.7568 42.5915C28.4918 41.6043 27.9607 40.7575 27.5586 39.8362C26.9602 38.052 26.8241 36.113 25.7633 34.4989C25.379 33.914 24.9169 33.4504 24.2267 33.2352C23.6004 33.0398 22.7555 33.0888 22.1816 33.4296C21.6047 33.7721 21.0892 34.294 20.9122 34.9594C20.739 35.6105 20.7222 36.4093 21.1075 36.9955C21.2777 37.2545 21.4219 37.5241 21.5476 37.8045C21.8323 38.6701 21.9915 39.5696 22.2305 40.4487C22.4098 41.1083 22.6438 41.7595 22.9233 42.3831C23.121 42.8243 23.3654 43.242 23.5704 43.6793C23.6527 43.9595 23.7101 44.2445 23.7516 44.5341C23.8523 46.0032 23.7698 47.4816 23.755 48.9519C23.7385 50.6063 23.8363 52.2628 24.1066 53.8969C24.5751 56.7292 25.6111 59.5289 27.0739 62.0013C27.9526 63.4865 28.9934 64.8977 30.1651 66.1671C31.1023 67.1825 32.9047 67.3053 33.9017 66.297C34.0831 66.1135 34.2354 65.9107 34.3581 65.6955C34.4124 65.8161 34.4645 65.938 34.5133 66.0616C34.5091 66.0505 34.5048 66.0393 34.5006 66.0282C34.719 66.5276 35.0091 66.947 35.5103 67.2628C36.0651 67.6124 36.8948 67.7812 37.5369 67.5987C38.1835 67.415 38.8141 67.042 39.1583 66.4448C39.1681 66.4279 39.1774 66.4103 39.187 66.393C39.4047 66.369 39.6209 66.3187 39.8298 66.2393C40.9994 65.7951 41.8418 64.4553 41.4685 63.1893C40.6148 60.2948 40.0924 57.3206 39.7552 54.3261C40.7972 53.772 41.862 53.2623 42.9617 52.8253C43.6992 52.5602 44.4484 52.3316 45.2115 52.1487C46.5554 51.8267 47.5631 50.3469 47.1704 48.9773Z" fill="white"/>
<path d="M61.1805 45.0309C60.879 44.4741 60.2688 43.9319 59.6439 43.7672C58.9729 43.5903 58.2126 43.5971 57.5987 43.9616C57.0426 44.2916 56.4634 44.8324 56.3293 45.4914C56.067 46.7815 55.7661 48.0708 55.2524 49.286C55.0363 49.7053 54.7906 50.1061 54.508 50.4841C53.3861 51.7018 51.919 52.5832 50.7287 53.7342C49.2804 55.1347 47.9813 56.869 47.533 58.8652C47.3992 59.461 47.3833 60.0011 47.6061 60.5826C47.8025 61.0953 48.1513 61.597 48.643 61.878C49.7105 62.4879 50.9164 62.3499 51.8592 61.578C54.0949 59.7477 56.1669 57.7284 58.0527 55.5421C58.5264 54.993 58.8654 54.462 58.8918 53.7091C58.8953 53.6079 58.8911 53.5033 58.881 53.3972C59.5848 52.4405 60.1208 51.4087 60.5352 50.2673C60.9125 49.2284 61.156 48.1479 61.3758 47.067C61.5209 46.3536 61.54 45.6945 61.1805 45.0309Z" fill="white"/>
<path d="M40.691 3.08841C40.347 2.51414 39.8227 2.00086 39.1544 1.82469C38.4992 1.65196 37.6998 1.63687 37.1092 2.01911C35.5815 3.0077 33.9572 3.94301 32.6046 5.167C31.1994 6.43858 30.1577 8.08208 29.5531 9.86974C29.1118 11.1743 29.9249 12.8111 31.2849 13.1696C32.6948 13.5413 34.127 12.8424 34.5995 11.4454C34.6648 11.2521 34.737 11.0619 34.8146 10.8738C35.0451 10.4315 35.3117 10.0117 35.614 9.61475C36.0561 9.13383 36.5486 8.70913 37.0713 8.31671C37.9049 7.74111 38.7666 7.2046 39.6169 6.6544C40.2043 6.2742 40.6706 5.80977 40.8862 5.12461C41.0825 4.50093 41.0333 3.65973 40.691 3.08841Z" fill="white"/>
<path d="M26.222 11.4163C26.188 10.7062 26.014 10.064 25.5134 9.52941C25.0711 9.05726 24.3313 8.68758 23.6721 8.69404C22.9877 8.70078 22.2712 8.89955 21.7768 9.39949C21.3081 9.87353 20.9047 10.5419 20.9377 11.2326C20.9464 11.413 20.953 11.5926 20.9525 11.7719C20.8658 11.7867 20.7797 11.8042 20.6951 11.8265C20.1531 11.9689 19.6992 12.2442 19.2969 12.6283C18.5494 13.3418 18.3592 14.2281 18.2023 15.1947C18.0597 16.0729 17.9014 17.0013 17.9154 17.8925C17.9323 18.9588 18.4662 19.8962 19.4553 20.3529C19.8983 20.5574 20.3326 20.6279 20.8181 20.58C21.3538 20.5272 21.9877 20.3249 22.3606 19.9093C22.8904 19.3187 23.5355 18.905 23.96 18.204C24.392 17.4905 24.688 16.6429 25.0273 15.8794C25.3048 15.2551 25.601 14.6354 25.8574 14.0023C26.19 13.1811 26.264 12.2923 26.222 11.4163Z" fill="white"/>
<path d="M75.4148 44.9864C75.3654 43.6636 75.1034 42.5001 74.5999 41.2816C74.4295 40.8693 74.2235 40.473 73.9771 40.1005C73.7917 39.82 73.5851 39.557 73.4167 39.2686C73.4044 38.8074 73.4161 38.3471 73.3701 37.8839C73.2952 37.1298 73.0819 36.4729 72.8115 35.7674C72.3818 34.6458 71.9298 33.5304 71.4515 32.4284C70.5826 30.4266 69.4791 28.5836 68.3839 26.7014C67.8461 25.7772 67.3389 24.8353 66.9297 23.8481C66.6898 23.1562 66.5077 22.4469 66.2757 21.7523C66.2884 21.6776 66.3012 21.6029 66.3139 21.5282C66.3291 21.0533 66.2243 20.6066 65.9998 20.188C65.6268 19.2545 65.2478 18.3229 64.8808 17.387C64.7124 16.9224 64.5679 16.452 64.4807 15.9661C64.4777 15.7971 64.4829 15.6283 64.4991 15.4571C64.6301 14.0838 63.3193 12.7214 61.9493 12.7348C60.4448 12.7495 59.3552 13.8023 59.2149 15.2734C59.0727 16.7645 59.5535 18.1573 60.0827 19.521C60.094 19.55 60.1055 19.5789 60.1167 19.6078C59.8756 20.4542 60.0717 21.3782 60.7029 22.1215C60.7092 22.1289 60.7151 22.1365 60.7214 22.1438C60.8625 22.3757 60.9842 22.6173 61.0932 22.8663C61.3657 23.6631 61.5642 24.4837 61.8573 25.2739C62.2923 26.4465 62.8035 27.5659 63.4173 28.6562C64.4871 30.5563 65.6551 32.3794 66.5516 34.3725C67.0252 35.4254 67.4624 36.4956 67.8859 37.5698C67.9895 37.8602 68.0787 38.1535 68.1396 38.4552C68.1427 38.7557 68.1281 39.0562 68.1426 39.3571C68.1835 40.2013 68.3112 40.9337 68.7133 41.6907C68.903 42.0479 69.1711 42.3583 69.3874 42.699C69.5671 42.9819 69.7226 43.277 69.8587 43.5818C69.9772 43.9476 70.0661 44.3195 70.1253 44.6994C70.127 44.7338 70.1293 44.7681 70.1306 44.8027C70.157 45.5084 70.3435 46.1603 70.8392 46.6896C71.2815 47.1617 72.0213 47.5314 72.6805 47.525C73.3649 47.5182 74.0814 47.3194 74.5757 46.8194C75.0476 46.3424 75.4408 45.6804 75.4148 44.9864Z" fill="white"/>
</g>
</svg>
