<svg width="76" height="84" viewBox="0 0 76 84" fill="none" xmlns="http://www.w3.org/2000/svg">
<path opacity="0.2" d="M0.0244827 14.6708C0.280037 11.0873 2.74451 8.69098 5.73 7.10359C9.52943 5.0884 13.2286 3.91677 17.8922 2.84201C19.0429 2.57968 21.5603 2.01119 25.4473 1.14218C29.1966 0.304999 32.9932 -0.0704612 36.8329 0.0108531C38.77 0.0546922 41.6306 0.217321 45.4208 0.501568C46.5906 0.589246 47.1116 0.848038 47.2019 2.03593C47.2394 2.5422 47.317 2.55493 47.4356 2.07341C47.4511 2.01684 47.5507 1.94543 47.7385 1.85775C48.7211 1.40805 50.0123 2.02957 50.7112 2.77342C51.5188 3.63606 51.7469 4.42021 52.2396 5.36346C52.2862 5.45397 52.361 5.507 52.4613 5.52255C59.021 6.52519 60.9398 13.3238 61.9754 18.8008C62.0785 19.3446 62.5931 22.1687 63.5193 27.2802C64.1279 30.648 65.4784 33.5788 67.5715 36.072C68.8316 37.5745 71.037 39.3995 72.235 40.562C75.9533 44.1674 77.1668 49.3291 74.7433 53.9463C74.4595 54.4865 73.995 55.3145 73.3427 56.4331C72.8408 57.3014 72.2887 58.0735 71.6865 58.7516C70.0085 60.6544 68.0367 62.6194 67.5503 64.9782C67.5157 65.1437 67.5786 65.3155 67.7127 65.4215C68.8359 66.2962 70.6883 67.3681 72.0395 66.6653C73.3681 65.9745 73.5368 64.1566 73.0723 62.8379C72.941 62.4695 73.013 62.4256 73.2876 62.7007C74.3105 63.738 74.1362 66.4814 72.8725 67.2656C71.0886 68.3778 69.2107 67.1341 67.7727 66.1505C67.4762 65.9504 67.3887 66.0162 67.5045 66.3535C68.3685 68.8813 71.054 70.5648 73.6342 69.5339C73.8524 69.4462 73.9053 69.5056 73.7966 69.7121C73.1697 70.8809 71.928 72.7518 70.4278 72.7929C68.6841 72.8395 67.2334 72.2555 66.0735 71.0372C65.9457 70.9057 65.8829 70.9311 65.8829 71.115V72.9491C65.8829 73.0488 65.9139 73.14 65.9768 73.215C66.7787 74.2148 67.2616 74.8088 67.4303 74.999C68.1695 75.8333 68.0699 75.9521 67.131 75.3518C66.8437 75.1672 66.3135 74.7769 65.5398 74.1773C65.4431 74.1024 65.3873 74.1243 65.3746 74.2459C65.0188 78.1391 62.0432 79.6197 58.428 78.9727C58.2162 78.9353 58.1569 79.013 58.2536 79.2068C61.7439 86.2741 64.2211 93.9473 63.9966 101.802C63.909 104.886 63.6627 107.885 63.2539 110.803C63.2384 110.916 63.1417 111 63.0294 111H10.4747C10.4436 111 10.4126 110.991 10.3843 110.972C10.3187 110.919 10.3067 110.825 10.3561 110.76C13.8089 106.289 17.4806 101.349 21.3739 95.9441C24.1031 92.1513 26.3184 88.4582 28.0184 84.8656C29.4783 81.7728 30.336 78.6015 29.9153 75.2613C29.9025 75.1552 29.8468 75.1206 29.7437 75.1581C29.251 75.349 28.8111 75.3921 28.4243 75.286C28.2654 75.2457 28.2654 75.2019 28.4215 75.1517C29.791 74.7359 29.563 73.4455 29.3321 72.4209C29.3074 72.3149 29.2418 72.2519 29.1359 72.23C26.1631 71.6771 24.2726 70.0678 23.465 67.3999C23.0061 65.8818 23.0717 63.9536 23.6492 62.4638C24.1081 61.2766 24.2853 61.3169 24.1794 62.5854C24.0671 63.9261 24.7378 66.0218 25.9386 66.8286C26.029 66.8908 26.1193 66.8972 26.2161 66.8477C26.6467 66.6356 27.0272 66.3697 27.3548 66.0445C27.4359 65.9667 27.4515 65.8755 27.4049 65.7729C26.8811 64.6544 26.1356 63.5294 25.1712 62.3988C23.8017 60.793 22.0643 60.187 19.9648 60.5801C18.2395 60.9054 14.6808 61.7921 11.7857 61.9639C10.5192 62.0389 9.44896 61.6889 8.57287 60.9174C6.86375 59.4177 7.24073 57.2215 7.82103 55.2558C7.85844 55.1123 7.77444 54.9624 7.63042 54.9214C6.33923 54.5494 4.61741 53.8777 5.58104 52.1468C5.73353 51.8781 6.05191 51.6066 6.24252 51.3379C6.25523 51.3223 6.2644 51.3032 6.27076 51.2849C6.31735 51.1597 6.25169 51.0254 6.13027 50.9787C5.54362 50.7666 5.06004 50.4943 4.67671 50.1634C3.12644 48.8136 4.96686 47.5324 5.53445 46.4576C5.54997 46.4265 5.56551 46.3954 5.57468 46.3607C5.65234 46.0857 5.4935 45.7986 5.21889 45.7173C3.48788 45.2202 1.04529 44.3456 1.0827 42.1147C1.09824 41.2683 1.82819 40.4248 2.41131 39.8711C4.01806 38.3467 5.27466 37.0251 6.18251 35.9094C6.48537 35.5374 6.74798 35.1337 6.95906 34.7024C7.16379 34.2845 7.35227 33.8164 7.45111 33.3603C7.57607 32.7827 7.64454 31.9603 7.46381 31.3869C7.3318 30.9683 6.94353 30.6466 6.63503 30.3538C2.86382 26.7824 1.14201 22.4239 1.46957 17.2813C1.66582 14.1631 2.61462 11.4825 4.46069 9.11099C4.72613 8.77371 4.68518 8.7327 4.34562 8.9922C0.94857 11.5667 -0.190132 15.0031 0.930214 19.3085C0.945747 19.3707 0.923859 19.4117 0.858208 19.4273L0.76149 19.4521C0.745964 19.4584 0.736786 19.4521 0.730438 19.433C0.147316 17.8774 -0.0870667 16.2865 0.0287094 14.6686L0.0244827 14.6708ZM69.0872 41.1149C71.6173 44.6015 73.779 47.8258 73.8722 52.3313C73.8785 52.6566 73.9343 52.6658 74.0437 52.3596C74.9699 49.7074 74.7489 47.2609 73.3822 45.0237C72.5054 43.5862 71.0646 42.5114 69.455 41.1587C69.318 41.0463 69.2432 40.9841 69.227 40.9714C68.8775 40.7182 68.8309 40.7649 69.0865 41.1149H69.0872ZM60.6023 78.6567C61.6662 78.4382 62.5303 77.8725 63.1974 76.9604C63.89 76.02 64.3799 74.8201 63.9302 73.6923C63.8773 73.5607 63.8363 73.5643 63.8088 73.7015C63.5843 74.7013 63.4685 75.2075 63.4657 75.2231C63.0661 76.9038 62.0058 77.8004 60.5805 78.5973C60.4654 78.6659 60.471 78.685 60.6023 78.6567Z" fill="white"/>
</svg>
