<svg width="32" height="32" viewBox="0 0 32 32" fill="none" xmlns="http://www.w3.org/2000/svg">
  <path d="M9.06761 11.2369C9.78636 11.6012 10.5389 11.91 11.3039 12.1556C12.8235 12.644 14.409 12.8904 16.0007 12.8912C17.5934 12.8902 19.1777 12.6431 20.6969 12.1556C21.4612 11.91 22.2137 11.6012 22.9325 11.2369C23.1737 11.115 23.3506 10.8944 23.4175 10.6325C23.4844 10.3706 23.435 10.0919 23.2819 9.86938L16.7725 0.40625C16.5975 0.151875 16.3088 0 16 0C15.6913 0 15.4025 0.151875 15.2275 0.40625L8.71823 9.86938C8.56511 10.0919 8.51573 10.3706 8.58261 10.6325C8.64948 10.8944 8.82636 11.115 9.06761 11.2369Z" fill="url(#paint0_linear_40000032_4121)"/>
  <path d="M6.94642 18.2344C7.75205 18.6425 8.59267 18.9988 9.44392 19.2925C11.5583 20.025 13.7789 20.3913 16.0001 20.3913C18.2214 20.3913 20.4425 20.025 22.5557 19.2931C23.4075 18.9988 24.2482 18.6425 25.0538 18.2344C25.295 18.1125 25.4719 17.8919 25.5388 17.63C25.6057 17.3681 25.5563 17.0894 25.4032 16.8669L22.9507 13.3019C22.4025 13.5438 21.84 13.7575 21.27 13.9406C19.5684 14.4884 17.7794 14.7658 16.0007 14.7663C14.2212 14.7658 12.4313 14.4889 10.7308 13.9406C10.1608 13.7575 9.59767 13.5438 9.04955 13.3019L6.59705 16.8669C6.44392 17.0894 6.39455 17.3681 6.46142 17.63C6.5283 17.8919 6.70517 18.1125 6.94642 18.2344Z" fill="url(#paint1_linear_40000032_4121)"/>
  <path d="M24.7819 20.4344C24.2519 20.6663 23.7125 20.8769 23.1694 21.065C20.8675 21.8619 18.4557 22.2663 16 22.2663C13.5444 22.2663 11.1326 21.8619 8.83198 21.065C8.28823 20.8775 7.74823 20.6663 7.21823 20.4344L5.06573 23.5637C4.91261 23.7862 4.86323 24.065 4.93011 24.3269C4.99698 24.5888 5.17386 24.8094 5.41511 24.9312C8.68005 26.5844 12.3407 27.4575 16 27.4575C19.6593 27.4575 23.3199 26.5844 26.5849 24.9312C26.8261 24.8094 27.003 24.5888 27.0699 24.3269C27.1367 24.065 27.0874 23.7862 26.9342 23.5637L24.7819 20.4344Z" fill="url(#paint2_linear_40000032_4121)"/>
  <path d="M13.1875 29.1737V31.0625C13.1875 31.58 13.6075 32 14.125 32H17.875C18.3925 32 18.8125 31.58 18.8125 31.0625V29.1737C17.8788 29.2794 16.9394 29.3325 16 29.3325C15.0607 29.3325 14.1213 29.2794 13.1875 29.1737Z" fill="url(#paint3_linear_40000032_4121)"/>
  <path d="M31.5311 9.42756L30.8135 9.01331L31.5311 8.59906C31.9795 8.34019 32.1332 7.76687 31.8742 7.31844C31.6153 6.86994 31.042 6.71631 30.5936 6.97531L29.8761 7.38956V6.5625C29.8761 6.04475 29.4564 5.625 28.9386 5.625C28.4209 5.625 28.0011 6.04475 28.0011 6.5625V7.3895L27.2849 6.976C26.8365 6.717 26.2632 6.87075 26.0043 7.31913C25.7454 7.76756 25.899 8.34094 26.3474 8.59975L27.0636 9.01325L26.3474 9.42675C25.899 9.68563 25.7454 10.2589 26.0043 10.7074C26.1779 11.0081 26.493 11.1763 26.817 11.1763C26.9761 11.1763 27.1373 11.1358 27.2849 11.0505L28.0011 10.637V11.4656C28.0011 11.9833 28.4209 12.4031 28.9386 12.4031C29.4564 12.4031 29.8761 11.9833 29.8761 11.4656V10.637L30.5936 11.0512C30.7412 11.1365 30.9024 11.1771 31.0615 11.1771C31.3855 11.1771 31.7005 11.0089 31.8742 10.7081C32.1332 10.2597 31.9795 9.68638 31.5311 9.42756Z" fill="url(#paint4_linear_40000032_4121)"/>
  <path d="M4.71511 5.42631C4.86273 5.51156 5.02392 5.55212 5.18298 5.55212C5.50698 5.55212 5.82205 5.38394 5.99573 5.08319C6.25467 4.63475 6.10105 4.06137 5.65261 3.80256L4.93505 3.38825L5.65261 2.974C6.10105 2.71513 6.25467 2.14181 5.99573 1.69337C5.7368 1.24494 5.16348 1.09131 4.71511 1.35025L3.99761 1.7645V0.9375C3.99761 0.41975 3.57786 0 3.06011 0C2.54236 0 2.12261 0.41975 2.12261 0.9375V1.7645L1.40642 1.351C0.957921 1.092 0.384734 1.24575 0.125796 1.69413C-0.133141 2.14256 0.0204836 2.71594 0.468921 2.97475L1.18511 3.38825L0.468984 3.80175C0.0205461 4.06063 -0.133079 4.63394 0.125859 5.08238C0.299484 5.38312 0.614609 5.55131 0.938609 5.55131C1.09767 5.55131 1.25886 5.51081 1.40648 5.4255L2.12267 5.012V5.84063C2.12267 6.35838 2.54242 6.77813 3.06017 6.77813C3.57792 6.77813 3.99767 6.35838 3.99767 5.84063V5.01206L4.71511 5.42631Z" fill="url(#paint5_linear_40000032_4121)"/>
  <path d="M5.18386 12.1391C5.70163 12.1391 6.12136 11.7193 6.12136 11.2016C6.12136 10.6838 5.70163 10.2641 5.18386 10.2641C4.66609 10.2641 4.24636 10.6838 4.24636 11.2016C4.24636 11.7193 4.66609 12.1391 5.18386 12.1391Z" fill="url(#paint6_linear_40000032_4121)"/>
  <path d="M2.32017 19.3444C2.83794 19.3444 3.25767 18.9247 3.25767 18.4069C3.25767 17.8892 2.83794 17.4694 2.32017 17.4694C1.8024 17.4694 1.38267 17.8892 1.38267 18.4069C1.38267 18.9247 1.8024 19.3444 2.32017 19.3444Z" fill="url(#paint7_linear_40000032_4121)"/>
  <path d="M29.2705 17.8454C29.7883 17.8454 30.208 17.4257 30.208 16.9079C30.208 16.3902 29.7883 15.9704 29.2705 15.9704C28.7528 15.9704 28.333 16.3902 28.333 16.9079C28.333 17.4257 28.7528 17.8454 29.2705 17.8454Z" fill="url(#paint8_linear_40000032_4121)"/>
  <path d="M24.0987 3.75C24.6165 3.75 25.0362 3.33027 25.0362 2.8125C25.0362 2.29473 24.6165 1.875 24.0987 1.875C23.581 1.875 23.1612 2.29473 23.1612 2.8125C23.1612 3.33027 23.581 3.75 24.0987 3.75Z" fill="url(#paint9_linear_40000032_4121)"/>
  <defs>
    <linearGradient id="paint0_linear_40000032_4121" x1="0" y1="16" x2="32" y2="16" gradientUnits="userSpaceOnUse">
      <stop stop-color="#6A5CFF"/>
      <stop offset="1" stop-color="#A890FF"/>
    </linearGradient>
    <linearGradient id="paint1_linear_40000032_4121" x1="0" y1="16" x2="32" y2="16" gradientUnits="userSpaceOnUse">
      <stop stop-color="#6A5CFF"/>
      <stop offset="1" stop-color="#A890FF"/>
    </linearGradient>
    <linearGradient id="paint2_linear_40000032_4121" x1="0" y1="16" x2="32" y2="16" gradientUnits="userSpaceOnUse">
      <stop stop-color="#6A5CFF"/>
      <stop offset="1" stop-color="#A890FF"/>
    </linearGradient>
    <linearGradient id="paint3_linear_40000032_4121" x1="0" y1="16" x2="32" y2="16" gradientUnits="userSpaceOnUse">
      <stop stop-color="#6A5CFF"/>
      <stop offset="1" stop-color="#A890FF"/>
    </linearGradient>
    <linearGradient id="paint4_linear_40000032_4121" x1="0" y1="16" x2="32" y2="16" gradientUnits="userSpaceOnUse">
      <stop stop-color="#6A5CFF"/>
      <stop offset="1" stop-color="#A890FF"/>
    </linearGradient>
    <linearGradient id="paint5_linear_40000032_4121" x1="0" y1="16" x2="32" y2="16" gradientUnits="userSpaceOnUse">
      <stop stop-color="#6A5CFF"/>
      <stop offset="1" stop-color="#A890FF"/>
    </linearGradient>
    <linearGradient id="paint6_linear_40000032_4121" x1="0" y1="16" x2="32" y2="16" gradientUnits="userSpaceOnUse">
      <stop stop-color="#6A5CFF"/>
      <stop offset="1" stop-color="#A890FF"/>
    </linearGradient>
    <linearGradient id="paint7_linear_40000032_4121" x1="0" y1="16" x2="32" y2="16" gradientUnits="userSpaceOnUse">
      <stop stop-color="#6A5CFF"/>
      <stop offset="1" stop-color="#A890FF"/>
    </linearGradient>
    <linearGradient id="paint8_linear_40000032_4121" x1="0" y1="16" x2="32" y2="16" gradientUnits="userSpaceOnUse">
      <stop stop-color="#6A5CFF"/>
      <stop offset="1" stop-color="#A890FF"/>
    </linearGradient>
    <linearGradient id="paint9_linear_40000032_4121" x1="0" y1="16" x2="32" y2="16" gradientUnits="userSpaceOnUse">
      <stop stop-color="#6A5CFF"/>
      <stop offset="1" stop-color="#A890FF"/>
    </linearGradient>
  </defs>
</svg>
